# xmcd
#
# Track frame offsets: 
#        150
#        14841
#        26608
#        38542
#        50765
#        63607
#        77135
#        89303
#        102363
#        116101
#        132048
#        146047
#        159839
#        175217
#        189249
#        203097
#        215690
#        227818
#        241539
#        255072
#        268046
#        280905
#        293531
#        306153
#
# Disc length: 4258 seconds
#
# Revision: 0
# Processed by: cddbd v1.5.2PL0 Copyright (c) Steve Scherf et al.
# Submitted via: ExactAudioCopyFreeDBPlugin 1.0
#
DISCID=4e10a018
DTITLE=Various Artist - Vocal Duets (1924-1931)
DYEAR=1997
DGENRE=Blues
TTITLE0=Charles and Effie Tyus - Jazz Crazy
TTITLE1=Charles and Effie Tyus - Omaha Blues
TTITLE2=Charles and Effie Tyus - I Want to Go Back to the Farm
TTITLE3=Charles and Effie Tyus - You've Got to Prove It to Me
TTITLE4=Charles and Effie Tyus - You've Got to Recognize Me
TTITLE5=Charles and Effie Tyus - Good Old Bygone Days
TTITLE6=Charles and Effie Tyus - Emancipation Day in Georgia
TTITLE7=Charles and Effie Tyus - I'm Funny 'Bout My Cookin' Blues
TTITLE8=Charles and Effie Tyus - Cuddle Up Close, It's Winter Time
TTITLE9=Charles and Effie Tyus - Alibi-ing Papa
TTITLE10=Charles and Effie Tyus - Sweet Mama Goodie
TTITLE11=Charles and Effie Tyus - You Make Me Laugh
TTITLE12=Charles and Effie Tyus - Dad's Ole Mule
TTITLE13=Eddie Green and Billie Wilson - I'm Leaving You
TTITLE14=Eddie Green and Billie Wilson - I'm Sorry for It Now
TTITLE15=Russell Lee and Daisy Wright - Vampire Brown
TTITLE16=Russell Lee and Daisy Wright - Pleasure Mad
TTITLE17=Biddy Paige and "Popo" Warfield - I Can't Do That
TTITLE18=Biddy Paige and "Popo" Warfield - Not Today, Sweet Cookie
TTITLE19=Billy McKenzie and Jesse Crump - Strewin' Your Mess
TTITLE20=Billy McKenzie and Jesse Crump - Put Your Mind on It
TTITLE21=Billy McKenzie and Jesse Crump - Who's Gonna Do Your Jelly Ro
TTITLE21=llin'?
TTITLE22=Billy McKenzie and Jesse Crump - That's a Married Man's Weakn
TTITLE22=ess
TTITLE23=Laura Rucker and George Ramsey - I'm the Lonesome One
EXTD=
EXTT0=
EXTT1=
EXTT2=
EXTT3=
EXTT4=
EXTT5=
EXTT6=
EXTT7=
EXTT8=
EXTT9=
EXTT10=
EXTT11=
EXTT12=
EXTT13=
EXTT14=
EXTT15=
EXTT16=
EXTT17=
EXTT18=
EXTT19=
EXTT20=
EXTT21=
EXTT22=
EXTT23=
PLAYORDER=
